# xmcd
#
# Track frame offsets: 
#        150
#        15150
#        26983
#        44906
#        68929
#        81414
#        94824
#        109953
#
# Disc length: 1692 seconds
#
# Revision: 0
# Processed by: cddbd v1.5.2PL0 Copyright (c) Steve Scherf et al.
# Submitted via: ExactAudioCopyFreeDBPlugin 1.0
#
DISCID=6c069a08
DTITLE=Rum Drum Ramblers - Hey Lordy Mama Mama Get Up And Go
DYEAR=2009
DGENRE=Blues
TTITLE0=We'll See
TTITLE1=Every Night
TTITLE2=Six Feet In The Ground
TTITLE3=Ain't Happy With You Baby
TTITLE4=Warm Atlanta Day
TTITLE5=From The Upper Mississippi
TTITLE6=Shanty Boat Rag
TTITLE7=Bonus Track (UNK)
EXTD=
EXTT0=
EXTT1=
EXTT2=
EXTT3=
EXTT4=
EXTT5=
EXTT6=
EXTT7=
PLAYORDER=
